<svg xmlns="http://www.w3.org/2000/svg" viewBox="0 0 24 24" fill="#61DAFB">
  <circle cx="12" cy="12" r="2"/>
  <path d="M12,1C18.5,1,24,6.5,24,12s-5.5,11-12,11S0,18.5,0,12S5.5,1,12,1z M12,3c-5,0-9,4-9,9s4,9,9,9s9-4,9-9S17,3,12,3z"/>
  <ellipse cx="12" cy="12" rx="11" ry="4" fill="none" stroke="#61DAFB" stroke-width="1"/>
  <ellipse cx="12" cy="12" rx="11" ry="4" fill="none" stroke="#61DAFB" stroke-width="1" transform="rotate(60 12 12)"/>
  <ellipse cx="12" cy="12" rx="11" ry="4" fill="none" stroke="#61DAFB" stroke-width="1" transform="rotate(120 12 12)"/>
</svg>
